<?xml version="1.0" encoding="utf-8"?>
<!-- Generator: Adobe Illustrator 19.2.1, SVG Export Plug-In . SVG Version: 6.00 Build 0)  -->
<svg version="1.1" id="Capa_1" xmlns="http://www.w3.org/2000/svg" xmlns:xlink="http://www.w3.org/1999/xlink" x="0px" y="0px"
	 viewBox="0 0 487.2 487.2" style="enable-background:new 0 0 487.2 487.2;" xml:space="preserve">
<style type="text/css">
	.st0{fill:#1253A4;}
</style>
<g>
	<g>
		<path class="st0" d="M470.7,201.6H328.4c-0.7,12.5-5.8,23.9-14.1,32.3h140.2v107.5l-16.8-59c-2-6.9-8.3-11.7-15.5-11.7H80.9v-89.8
			h98.9v-32.3h-115c-8.9,0-16.1,7.2-16.1,16.1v105.9H16.4c-5.1,0-9.8,2.4-12.9,6.4c-3.1,4-4,9.3-2.6,14.1l46,162.2
			c3.4,11.9,14.2,20.1,26.6,20.1l385.8-0.1c15.3,0,27.6-12.4,27.6-27.6V217.8C486.8,208.9,479.6,201.6,470.7,201.6z"/>
		<path class="st0" d="M486.8,487.2L486.8,487.2C486.7,487.2,486.7,487.2,486.8,487.2z"/>
	</g>
	<path class="st0" d="M179.3,101.7h32.8v97.2c0,9.9,8,17.8,17.8,17.8h48.7c9.9,0,17.9-8,17.9-17.8v-97.2h32.8
		c5.4,0,10.3-3.3,12.4-8.3s0.9-10.8-2.9-14.6l-75-74.9c-2.6-2.6-6-3.9-9.5-3.9c-3.4,0-6.9,1.3-9.5,3.9l-74.9,74.9
		c-3.9,3.8-5,9.6-2.9,14.6C169,98.5,173.9,101.7,179.3,101.7z"/>
</g>
</svg>
